<svg width="60" height="60" viewBox="0 0 60 60" fill="none" xmlns="http://www.w3.org/2000/svg">
<path opacity="0.2" d="M52.5 26.25C52.5014 30.5593 51.2652 34.7783 48.9385 38.4055C46.6118 42.0327 43.2924 44.9154 39.375 46.7109V48.75C39.375 49.2473 39.1775 49.7242 38.8258 50.0758C38.4742 50.4275 37.9973 50.625 37.5 50.625H22.5C22.0027 50.625 21.5258 50.4275 21.1742 50.0758C20.8225 49.7242 20.625 49.2473 20.625 48.75V46.7109C16.7076 44.9154 13.3882 42.0327 11.0615 38.4055C8.7348 34.7783 7.49864 30.5593 7.5 26.25H52.5Z" fill="url(#paint0_linear_238_27648)"/>
<path d="M52.5 24.3743H50.5383C50.0672 19.2529 47.6996 14.4923 43.9001 11.0262C40.1005 7.56015 35.143 5.63867 30 5.63867C24.857 5.63867 19.8995 7.56015 16.0999 11.0262C12.3004 14.4923 9.93284 19.2529 9.46172 24.3743H7.5C7.00272 24.3743 6.52581 24.5719 6.17417 24.9235C5.82254 25.2751 5.625 25.752 5.625 26.2493C5.63324 30.7084 6.86037 35.0803 9.1737 38.8923C11.487 42.7043 14.7985 45.8114 18.75 47.8775V48.7493C18.75 49.7439 19.1451 50.6977 19.8484 51.401C20.5516 52.1042 21.5054 52.4993 22.5 52.4993H37.5C38.4946 52.4993 39.4484 52.1042 40.1516 51.401C40.8549 50.6977 41.25 49.7439 41.25 48.7493V47.8775C45.2015 45.8114 48.513 42.7043 50.8263 38.8923C53.1396 35.0803 54.3668 30.7084 54.375 26.2493C54.375 25.752 54.1775 25.2751 53.8258 24.9235C53.4742 24.5719 52.9973 24.3743 52.5 24.3743ZM40.6594 13.1782C41.0891 13.5298 41.5008 13.9009 41.8945 14.2915C36.9032 16.0473 32.7785 19.6559 30.375 24.3696H23.4609C24.6328 21.0847 26.7903 18.2417 29.6387 16.229C32.487 14.2162 35.8873 13.132 39.375 13.1243C39.8039 13.1243 40.2328 13.1454 40.6594 13.1782ZM44.3883 17.4439C45.6831 19.5501 46.4956 21.9169 46.7672 24.3743H34.7156C36.9889 20.9639 40.428 18.4997 44.3883 17.4439ZM30 9.37433C31.5046 9.37532 33.0023 9.5779 34.4531 9.97667C30.9198 10.8532 27.6799 12.6456 25.06 15.1733C22.4402 17.701 20.5329 20.8746 19.5305 24.3743H13.2328C13.6979 20.2513 15.664 16.4437 18.7563 13.6773C21.8487 10.9109 25.8509 9.37926 30 9.37433ZM38.5922 44.9993C38.2651 45.1496 37.9882 45.3908 37.7945 45.6942C37.6009 45.9976 37.4986 46.3503 37.5 46.7103V48.7493H22.5V46.7103C22.5014 46.3503 22.3991 45.9976 22.2055 45.6942C22.0118 45.3908 21.7349 45.1496 21.4078 44.9993C18.1104 43.482 15.2702 41.124 13.1721 38.162C11.0741 35.2001 9.79203 31.7384 9.45469 28.1243H50.5383C50.2016 31.7376 48.9206 35.1988 46.8238 38.1607C44.7271 41.1226 41.8883 43.481 38.5922 44.9993Z" fill="url(#paint1_linear_238_27648)"/>
<defs>
<linearGradient id="paint0_linear_238_27648" x1="7.5" y1="38.4375" x2="52.5" y2="38.4375" gradientUnits="userSpaceOnUse">
<stop stop-color="#024143"/>
<stop offset="1" stop-color="#007C70"/>
</linearGradient>
<linearGradient id="paint1_linear_238_27648" x1="5.625" y1="29.069" x2="54.375" y2="29.069" gradientUnits="userSpaceOnUse">
<stop stop-color="#024143"/>
<stop offset="1" stop-color="#007C70"/>
</linearGradient>
</defs>
</svg>
