<svg width="30" height="30" viewBox="0 0 30 30" fill="none" xmlns="http://www.w3.org/2000/svg">
<path opacity="0.2" d="M26.25 13.125C26.2507 15.2796 25.6326 17.3892 24.4692 19.2028C23.3059 21.0163 21.6462 22.4577 19.6875 23.3555V24.375C19.6875 24.6236 19.5887 24.8621 19.4129 25.0379C19.2371 25.2137 18.9986 25.3125 18.75 25.3125H11.25C11.0014 25.3125 10.7629 25.2137 10.5871 25.0379C10.4113 24.8621 10.3125 24.6236 10.3125 24.375V23.3555C8.3538 22.4577 6.69411 21.0163 5.53076 19.2028C4.3674 17.3892 3.74932 15.2796 3.75 13.125H26.25Z" fill="url(#paint0_linear_1503_7853)"/>
<path d="M26.25 12.1872H25.2691C25.0336 9.62647 23.8498 7.24617 21.95 5.51312C20.0502 3.78008 17.5715 2.81934 15 2.81934C12.4285 2.81934 9.94976 3.78008 8.04997 5.51312C6.15019 7.24617 4.96642 9.62647 4.73086 12.1872H3.75C3.50136 12.1872 3.2629 12.2859 3.08709 12.4618C2.91127 12.6376 2.8125 12.876 2.8125 13.1247C2.81662 15.3542 3.43019 17.5401 4.58685 19.4462C5.74351 21.3522 7.39925 22.9057 9.375 23.9387V24.3747C9.375 24.8719 9.57254 25.3489 9.92418 25.7005C10.2758 26.0521 10.7527 26.2497 11.25 26.2497H18.75C19.2473 26.2497 19.7242 26.0521 20.0758 25.7005C20.4275 25.3489 20.625 24.8719 20.625 24.3747V23.9387C22.6008 22.9057 24.2565 21.3522 25.4132 19.4462C26.5698 17.5401 27.1834 15.3542 27.1875 13.1247C27.1875 12.876 27.0887 12.6376 26.9129 12.4618C26.7371 12.2859 26.4986 12.1872 26.25 12.1872ZM20.3297 6.58912C20.5445 6.7649 20.7504 6.95044 20.9473 7.14576C18.4516 8.02367 16.3893 9.82795 15.1875 12.1848H11.7305C12.3164 10.5424 13.3952 9.12084 14.8193 8.11448C16.2435 7.10812 17.9436 6.56599 19.6875 6.56216C19.902 6.56216 20.1164 6.57271 20.3297 6.58912ZM22.1941 8.72193C22.8416 9.77504 23.2478 10.9584 23.3836 12.1872H17.3578C18.4944 10.482 20.214 9.24987 22.1941 8.72193ZM15 4.68716C15.7523 4.68766 16.5012 4.78895 17.2266 4.98833C15.4599 5.42658 13.8399 6.3228 12.53 7.58664C11.2201 8.85049 10.2665 10.4373 9.76523 12.1872H6.61641C6.84896 10.1257 7.83202 8.22185 9.37817 6.83866C10.9243 5.45546 12.9254 4.68963 15 4.68716ZM19.2961 22.4997C19.1326 22.5748 18.9941 22.6954 18.8973 22.8471C18.8004 22.9988 18.7493 23.1752 18.75 23.3551V24.3747H11.25V23.3551C11.2507 23.1752 11.1996 22.9988 11.1027 22.8471C11.0059 22.6954 10.8674 22.5748 10.7039 22.4997C9.05522 21.741 7.63509 20.562 6.58606 19.081C5.53704 17.6 4.89602 15.8692 4.72734 14.0622H25.2691C25.1008 15.8688 24.4603 17.5994 23.4119 19.0804C22.3635 20.5613 20.9441 21.7405 19.2961 22.4997Z" fill="url(#paint1_linear_1503_7853)"/>
<defs>
<linearGradient id="paint0_linear_1503_7853" x1="3.75" y1="19.2188" x2="26.25" y2="19.2187" gradientUnits="userSpaceOnUse">
<stop stop-color="#024143"/>
<stop offset="1" stop-color="#007C70"/>
</linearGradient>
<linearGradient id="paint1_linear_1503_7853" x1="2.8125" y1="14.5345" x2="27.1875" y2="14.5345" gradientUnits="userSpaceOnUse">
<stop stop-color="#024143"/>
<stop offset="1" stop-color="#007C70"/>
</linearGradient>
</defs>
</svg>
