<svg width="30" height="30" viewBox="0 0 30 30" fill="none" xmlns="http://www.w3.org/2000/svg">
<g clip-path="url(#clip0_1503_7858)">
<path opacity="0.2" d="M11.25 7.5V22.5C11.25 22.7486 11.1512 22.9871 10.9754 23.1629C10.7996 23.3387 10.5611 23.4375 10.3125 23.4375H7.5C7.25136 23.4375 7.0129 23.3387 6.83709 23.1629C6.66127 22.9871 6.5625 22.7486 6.5625 22.5V7.5C6.5625 7.25136 6.66127 7.0129 6.83709 6.83709C7.0129 6.66127 7.25136 6.5625 7.5 6.5625H10.3125C10.5611 6.5625 10.7996 6.66127 10.9754 6.83709C11.1512 7.0129 11.25 7.25136 11.25 7.5ZM22.5 6.5625H19.6875C19.4389 6.5625 19.2004 6.66127 19.0246 6.83709C18.8488 7.0129 18.75 7.25136 18.75 7.5V22.5C18.75 22.7486 18.8488 22.9871 19.0246 23.1629C19.2004 23.3387 19.4389 23.4375 19.6875 23.4375H22.5C22.7486 23.4375 22.9871 23.3387 23.1629 23.1629C23.3387 22.9871 23.4375 22.7486 23.4375 22.5V7.5C23.4375 7.25136 23.3387 7.0129 23.1629 6.83709C22.9871 6.66127 22.7486 6.5625 22.5 6.5625Z" fill="url(#paint0_linear_1503_7858)"/>
<path d="M29.0625 14.0625H28.125V10.3125C28.125 9.81522 27.9275 9.33831 27.5758 8.98668C27.2242 8.63504 26.7473 8.4375 26.25 8.4375H24.375V7.5C24.375 7.00272 24.1775 6.52581 23.8258 6.17417C23.4742 5.82254 22.9973 5.625 22.5 5.625H19.6875C19.1902 5.625 18.7133 5.82254 18.3617 6.17417C18.01 6.52581 17.8125 7.00272 17.8125 7.5V14.0625H12.1875V7.5C12.1875 7.00272 11.99 6.52581 11.6383 6.17417C11.2867 5.82254 10.8098 5.625 10.3125 5.625H7.5C7.00272 5.625 6.52581 5.82254 6.17417 6.17417C5.82254 6.52581 5.625 7.00272 5.625 7.5V8.4375H3.75C3.25272 8.4375 2.77581 8.63504 2.42417 8.98668C2.07254 9.33831 1.875 9.81522 1.875 10.3125V14.0625H0.9375C0.68886 14.0625 0.450403 14.1613 0.274587 14.3371C0.0987721 14.5129 0 14.7514 0 15C0 15.2486 0.0987721 15.4871 0.274587 15.6629C0.450403 15.8387 0.68886 15.9375 0.9375 15.9375H1.875V19.6875C1.875 20.1848 2.07254 20.6617 2.42417 21.0133C2.77581 21.365 3.25272 21.5625 3.75 21.5625H5.625V22.5C5.625 22.9973 5.82254 23.4742 6.17417 23.8258C6.52581 24.1775 7.00272 24.375 7.5 24.375H10.3125C10.8098 24.375 11.2867 24.1775 11.6383 23.8258C11.99 23.4742 12.1875 22.9973 12.1875 22.5V15.9375H17.8125V22.5C17.8125 22.9973 18.01 23.4742 18.3617 23.8258C18.7133 24.1775 19.1902 24.375 19.6875 24.375H22.5C22.9973 24.375 23.4742 24.1775 23.8258 23.8258C24.1775 23.4742 24.375 22.9973 24.375 22.5V21.5625H26.25C26.7473 21.5625 27.2242 21.365 27.5758 21.0133C27.9275 20.6617 28.125 20.1848 28.125 19.6875V15.9375H29.0625C29.3111 15.9375 29.5496 15.8387 29.7254 15.6629C29.9012 15.4871 30 15.2486 30 15C30 14.7514 29.9012 14.5129 29.7254 14.3371C29.5496 14.1613 29.3111 14.0625 29.0625 14.0625ZM3.75 19.6875V10.3125H5.625V19.6875H3.75ZM10.3125 22.5H7.5V7.5H10.3125V22.5ZM22.5 22.5H19.6875V7.5H22.5V20.6051C22.5 20.6121 22.5 20.618 22.5 20.625C22.5 20.632 22.5 20.6391 22.5 20.6449V22.5ZM26.25 19.6875H24.375V10.3125H26.25V19.6875Z" fill="url(#paint1_linear_1503_7858)"/>
</g>
<defs>
<linearGradient id="paint0_linear_1503_7858" x1="6.5625" y1="15" x2="23.4375" y2="15" gradientUnits="userSpaceOnUse">
<stop stop-color="#024143"/>
<stop offset="1" stop-color="#007C70"/>
</linearGradient>
<linearGradient id="paint1_linear_1503_7858" x1="0" y1="15" x2="30" y2="15" gradientUnits="userSpaceOnUse">
<stop stop-color="#024143"/>
<stop offset="1" stop-color="#007C70"/>
</linearGradient>
<clipPath id="clip0_1503_7858">
<rect width="30" height="30" fill="white"/>
</clipPath>
</defs>
</svg>
