<svg width="30" height="30" viewBox="0 0 30 30" fill="none" xmlns="http://www.w3.org/2000/svg">
<path opacity="0.2" d="M25.3125 14.0623V25.3123H17.8125V17.8123H12.1875V25.3123H4.6875V14.0623C4.6874 13.9391 4.71157 13.8171 4.75862 13.7033C4.80567 13.5895 4.87469 13.4861 4.96172 13.399L14.3367 4.02398C14.4238 3.93681 14.5272 3.86767 14.641 3.82049C14.7548 3.77331 14.8768 3.74902 15 3.74902C15.1232 3.74902 15.2452 3.77331 15.359 3.82049C15.4728 3.86767 15.5762 3.93681 15.6633 4.02398L25.0383 13.399C25.1253 13.4861 25.1943 13.5895 25.2414 13.7033C25.2884 13.8171 25.3126 13.9391 25.3125 14.0623Z" fill="url(#paint0_linear_1503_7847)"/>
<path d="M25.7004 12.7353L16.3254 3.36026C15.9738 3.0089 15.4971 2.81152 15 2.81152C14.5029 2.81152 14.0262 3.0089 13.6746 3.36026L4.29962 12.7353C4.12467 12.9089 3.98598 13.1156 3.89163 13.3434C3.79727 13.5711 3.74913 13.8153 3.75001 14.0618V25.3118C3.75001 25.5605 3.84878 25.7989 4.0246 25.9747C4.20041 26.1506 4.43887 26.2493 4.68751 26.2493H12.1875C12.4362 26.2493 12.6746 26.1506 12.8504 25.9747C13.0262 25.7989 13.125 25.5605 13.125 25.3118V18.7493H16.875V25.3118C16.875 25.5605 16.9738 25.7989 17.1496 25.9747C17.3254 26.1506 17.5639 26.2493 17.8125 26.2493H25.3125C25.5612 26.2493 25.7996 26.1506 25.9754 25.9747C26.1512 25.7989 26.25 25.5605 26.25 25.3118V14.0618C26.2509 13.8153 26.2028 13.5711 26.1084 13.3434C26.014 13.1156 25.8754 12.9089 25.7004 12.7353ZM24.375 24.3743H18.75V17.8118C18.75 17.5632 18.6512 17.3247 18.4754 17.1489C18.2996 16.9731 18.0612 16.8743 17.8125 16.8743H12.1875C11.9389 16.8743 11.7004 16.9731 11.5246 17.1489C11.3488 17.3247 11.25 17.5632 11.25 17.8118V24.3743H5.62501V14.0618L15 4.68683L24.375 14.0618V24.3743Z" fill="url(#paint1_linear_1503_7847)"/>
<defs>
<linearGradient id="paint0_linear_1503_7847" x1="4.6875" y1="14.5306" x2="25.3125" y2="14.5306" gradientUnits="userSpaceOnUse">
<stop stop-color="#024143"/>
<stop offset="1" stop-color="#007C70"/>
</linearGradient>
<linearGradient id="paint1_linear_1503_7847" x1="3.75" y1="14.5304" x2="26.25" y2="14.5304" gradientUnits="userSpaceOnUse">
<stop stop-color="#024143"/>
<stop offset="1" stop-color="#007C70"/>
</linearGradient>
</defs>
</svg>
