<svg width="24" height="24" viewBox="0 0 24 24" fill="none" xmlns="http://www.w3.org/2000/svg">
<path d="M22.879 10.5028C22.8772 9.01149 22.284 7.58176 21.2295 6.52725C20.175 5.47273 18.7453 4.87954 17.254 4.8778C17.1602 4.8778 17.0711 4.8778 16.9802 4.8853C16.5027 3.97921 15.7869 3.2207 14.9099 2.69158C14.0329 2.16246 13.0282 1.88281 12.004 1.88281C10.9797 1.88281 9.97497 2.16246 9.09802 2.69158C8.22106 3.2207 7.50522 3.97921 7.02771 4.8853C6.94146 4.8778 6.84771 4.8778 6.75396 4.8778C5.49949 4.8804 4.2819 5.30227 3.29472 6.07634C2.30755 6.85041 1.60746 7.93226 1.30575 9.1499C1.00403 10.3675 1.118 11.6511 1.62954 12.7965C2.14109 13.942 3.02084 14.8835 4.12896 15.4716V19.5028C4.12896 20.0001 4.3265 20.477 4.67813 20.8286C5.02976 21.1803 5.50668 21.3778 6.00396 21.3778H18.004C18.5012 21.3778 18.9782 21.1803 19.3298 20.8286C19.6814 20.477 19.879 20.0001 19.879 19.5028V15.4716C20.7835 14.9943 21.5407 14.2795 22.0693 13.404C22.5979 12.5285 22.8778 11.5255 22.879 10.5028ZM17.629 19.1278H6.37896V16.1137C6.50271 16.1222 6.6274 16.1278 6.75396 16.1278H17.254C17.3805 16.1278 17.5052 16.1222 17.629 16.1137V19.1278ZM17.254 13.8778H16.4449L16.8452 12.2756C16.9118 11.9882 16.8629 11.6861 16.709 11.4345C16.555 11.1828 16.3084 11.0017 16.0221 10.9301C15.7359 10.8585 15.433 10.9023 15.1788 11.0519C14.9245 11.2015 14.7392 11.445 14.6627 11.73L14.1255 13.8778H13.129V12.0028C13.129 11.7044 13.0104 11.4183 12.7995 11.2073C12.5885 10.9963 12.3023 10.8778 12.004 10.8778C11.7056 10.8778 11.4194 10.9963 11.2085 11.2073C10.9975 11.4183 10.879 11.7044 10.879 12.0028V13.8778H9.8824L9.34521 11.73C9.31147 11.5845 9.2491 11.4472 9.16173 11.326C9.07436 11.2049 8.96375 11.1024 8.83634 11.0244C8.70892 10.9465 8.56727 10.8947 8.41963 10.8721C8.27199 10.8495 8.12133 10.8565 7.97643 10.8927C7.83153 10.9289 7.69529 10.9936 7.57567 11.0831C7.45604 11.1725 7.35542 11.2848 7.27968 11.4136C7.20393 11.5423 7.15458 11.6848 7.1345 11.8328C7.11442 11.9808 7.12401 12.1314 7.16271 12.2756L7.56302 13.8778H6.75396C5.89051 13.8775 5.06002 13.5463 4.43335 12.9523C3.80669 12.3583 3.43153 11.5467 3.38505 10.6845C3.33857 9.82228 3.62431 8.97506 4.18349 8.31713C4.74266 7.65921 5.53273 7.24062 6.39115 7.14749C6.38365 7.26561 6.37896 7.38374 6.37896 7.5028C6.37896 7.80117 6.49749 8.08732 6.70846 8.2983C6.91944 8.50928 7.20559 8.6278 7.50396 8.6278C7.80233 8.6278 8.08848 8.50928 8.29945 8.2983C8.51043 8.08732 8.62896 7.80117 8.62896 7.5028C8.62896 6.6077 8.98454 5.74925 9.61747 5.11632C10.2504 4.48338 11.1089 4.1278 12.004 4.1278C12.8991 4.1278 13.7575 4.48338 14.3904 5.11632C15.0234 5.74925 15.379 6.6077 15.379 7.5028C15.379 7.80117 15.4975 8.08732 15.7085 8.2983C15.9194 8.50928 16.2056 8.6278 16.504 8.6278C16.8023 8.6278 17.0885 8.50928 17.2995 8.2983C17.5104 8.08732 17.629 7.80117 17.629 7.5028C17.629 7.38374 17.6243 7.26561 17.6168 7.14749C18.4752 7.24062 19.2653 7.65921 19.8244 8.31713C20.3836 8.97506 20.6693 9.82228 20.6229 10.6845C20.5764 11.5467 20.2012 12.3583 19.5746 12.9523C18.9479 13.5463 18.1174 13.8775 17.254 13.8778Z" fill="url(#paint0_linear_238_27385)"/>
<defs>
<linearGradient id="paint0_linear_238_27385" x1="1.14062" y1="11.6303" x2="22.879" y2="11.6303" gradientUnits="userSpaceOnUse">
<stop stop-color="#024143"/>
<stop offset="1" stop-color="#007C70"/>
</linearGradient>
</defs>
</svg>
