<svg width="30" height="30" viewBox="0 0 30 30" fill="none" xmlns="http://www.w3.org/2000/svg">
<path d="M15 2.5C12.5277 2.5 10.111 3.23311 8.05538 4.60663C5.99976 5.98015 4.39761 7.93238 3.45151 10.2165C2.50542 12.5005 2.25787 15.0139 2.74019 17.4386C3.2225 19.8634 4.41301 22.0907 6.16117 23.8388C7.90933 25.587 10.1366 26.7775 12.5614 27.2598C14.9861 27.7421 17.4995 27.4946 19.7835 26.5485C22.0676 25.6024 24.0199 24.0002 25.3934 21.9446C26.7669 19.889 27.5 17.4723 27.5 15C27.4965 11.6859 26.1784 8.50848 23.835 6.16503C21.4915 3.82158 18.3141 2.5035 15 2.5ZM8.51924 23.3534C9.21483 22.2655 10.1731 21.3702 11.3057 20.7501C12.4383 20.1299 13.7087 19.8049 15 19.8049C16.2913 19.8049 17.5617 20.1299 18.6943 20.7501C19.8269 21.3702 20.7852 22.2655 21.4808 23.3534C19.6278 24.7945 17.3474 25.5768 15 25.5768C12.6526 25.5768 10.3722 24.7945 8.51924 23.3534ZM11.1538 14.0385C11.1538 13.2778 11.3794 12.5341 11.802 11.9017C12.2247 11.2692 12.8254 10.7762 13.5281 10.4851C14.2309 10.194 15.0043 10.1178 15.7503 10.2662C16.4964 10.4146 17.1817 10.7809 17.7196 11.3188C18.2575 11.8567 18.6238 12.542 18.7723 13.2881C18.9207 14.0342 18.8445 14.8075 18.5534 15.5103C18.2623 16.2131 17.7693 16.8138 17.1368 17.2364C16.5043 17.659 15.7607 17.8846 15 17.8846C13.9799 17.8846 13.0017 17.4794 12.2804 16.7581C11.5591 16.0368 11.1538 15.0585 11.1538 14.0385ZM22.9038 22.0204C21.8315 20.4664 20.3235 19.2642 18.5697 18.5649C19.5118 17.8229 20.1992 16.8057 20.5365 15.6549C20.8737 14.5041 20.8439 13.2768 20.4512 12.1437C20.0586 11.0106 19.3226 10.028 18.3456 9.33256C17.3686 8.63713 16.1992 8.26343 15 8.26343C13.8008 8.26343 12.6314 8.63713 11.6544 9.33256C10.6774 10.028 9.94144 11.0106 9.54879 12.1437C9.15614 13.2768 9.12634 14.5041 9.46355 15.6549C9.80076 16.8057 10.4882 17.8229 11.4303 18.5649C9.67647 19.2642 8.16855 20.4664 7.09616 22.0204C5.74107 20.4966 4.85538 18.6135 4.54573 16.598C4.23609 14.5824 4.51569 12.5203 5.35087 10.66C6.18605 8.79964 7.5412 7.2204 9.25313 6.11242C10.9651 5.00444 12.9608 4.41496 15 4.41496C17.0392 4.41496 19.0349 5.00444 20.7469 6.11242C22.4588 7.2204 23.814 8.79964 24.6491 10.66C25.4843 12.5203 25.7639 14.5824 25.4543 16.598C25.1446 18.6135 24.2589 20.4966 22.9038 22.0204Z" fill="#115358"/>
</svg>
