<svg width="60" height="60" viewBox="0 0 60 60" fill="none" xmlns="http://www.w3.org/2000/svg">
<path d="M56.3062 43.6179L35.8101 8.02337C35.2165 7.00809 34.3673 6.16593 33.3472 5.58069C32.327 4.99544 31.1714 4.6875 29.9953 4.6875C28.8192 4.6875 27.6635 4.99544 26.6434 5.58069C25.6232 6.16593 24.7741 7.00809 24.1804 8.02337L3.68433 43.6179C3.10828 44.6031 2.80469 45.7239 2.80469 46.8652C2.80469 48.0065 3.10828 49.1272 3.68433 50.1124C4.27141 51.1328 5.11938 51.9786 6.14124 52.563C7.16309 53.1475 8.32204 53.4495 9.49917 53.4382H50.4914C51.6677 53.4487 52.8257 53.1462 53.8466 52.5618C54.8676 51.9774 55.7148 51.1321 56.3015 50.1124C56.8783 49.1276 57.1827 48.0071 57.1835 46.8658C57.1843 45.7245 56.8815 44.6036 56.3062 43.6179ZM51.4312 47.2976C51.3359 47.46 51.1985 47.5937 51.0334 47.6844C50.8684 47.7752 50.6819 47.8197 50.4937 47.8132H9.49917C9.31095 47.8197 9.12447 47.7752 8.95945 47.6844C8.79443 47.5937 8.65699 47.46 8.56167 47.2976C8.48082 47.1661 8.43801 47.0148 8.43801 46.8605C8.43801 46.7061 8.48082 46.5548 8.56167 46.4234L29.0578 10.8288C29.1593 10.6726 29.2982 10.5442 29.4619 10.4554C29.6256 10.3665 29.809 10.3199 29.9953 10.3199C30.1816 10.3199 30.3649 10.3665 30.5286 10.4554C30.6924 10.5442 30.8313 10.6726 30.9328 10.8288L51.4265 46.4234C51.5081 46.5544 51.5517 46.7055 51.5525 46.8598C51.5534 47.0142 51.5114 47.1657 51.4312 47.2976ZM27.1828 31.8757V24.3757C27.1828 23.6298 27.4791 22.9144 28.0065 22.387C28.534 21.8595 29.2493 21.5632 29.9953 21.5632C30.7412 21.5632 31.4566 21.8595 31.984 22.387C32.5115 22.9144 32.8078 23.6298 32.8078 24.3757V31.8757C32.8078 32.6216 32.5115 33.337 31.984 33.8645C31.4566 34.3919 30.7412 34.6882 29.9953 34.6882C29.2493 34.6882 28.534 34.3919 28.0065 33.8645C27.4791 33.337 27.1828 32.6216 27.1828 31.8757ZM33.7453 41.2507C33.7453 41.9924 33.5253 42.7174 33.1133 43.3341C32.7012 43.9508 32.1156 44.4314 31.4303 44.7153C30.7451 44.9991 29.9911 45.0734 29.2637 44.9287C28.5363 44.784 27.8681 44.4268 27.3436 43.9024C26.8192 43.3779 26.462 42.7097 26.3173 41.9823C26.1726 41.2549 26.2469 40.5009 26.5307 39.8157C26.8145 39.1304 27.2952 38.5448 27.9119 38.1327C28.5286 37.7206 29.2536 37.5007 29.9953 37.5007C30.9898 37.5007 31.9437 37.8958 32.6469 38.5991C33.3502 39.3023 33.7453 40.2562 33.7453 41.2507Z" fill="url(#paint0_linear_238_27637)"/>
<defs>
<linearGradient id="paint0_linear_238_27637" x1="2.80469" y1="29.063" x2="57.1835" y2="29.063" gradientUnits="userSpaceOnUse">
<stop stop-color="#024143"/>
<stop offset="1" stop-color="#007C70"/>
</linearGradient>
</defs>
</svg>
